<svg width="38" height="40" viewBox="0 0 38 40" fill="none" xmlns="http://www.w3.org/2000/svg">
<path d="M34.9604 35.2124L34.8896 35.205C34.8959 35.2107 34.8375 35.4192 34.6425 35.6706C34.3557 36.0535 33.8071 36.5271 33.105 36.8735C32.4018 37.2242 31.552 37.4582 30.6339 37.4576C29.5632 37.4545 28.3919 37.1535 27.1412 36.2882C25.9432 35.4521 25.3225 34.7823 24.9086 34.1082C24.5982 33.5986 24.389 33.0536 24.1891 32.3504C23.8893 31.3007 23.6318 29.916 23.0725 28.1066C22.512 26.2953 21.6448 24.067 20.1166 21.2577C18.8975 19.0263 17.851 15.698 17.8579 12.5472C17.8579 11.2257 18.0366 9.93713 18.4351 8.75963C18.8348 7.58034 19.4475 6.51143 20.3389 5.58534C22.4468 3.40784 24.8775 2.54885 27.1891 2.5426C28.8619 2.54135 30.4671 3.00995 31.7686 3.79581C33.0734 4.58096 34.0604 5.67284 34.5644 6.88753L36.9107 5.90932C36.1621 4.11542 34.7829 2.64432 33.0808 1.61768C31.3757 0.591588 29.3329 0.00127512 27.189 2.51241e-05C24.2325 -0.00622488 21.0725 1.15331 18.5089 3.82112C17.3352 5.03643 16.5295 6.45542 16.0267 7.94518C15.5227 9.43612 15.3161 10.9985 15.3154 12.5471C15.3229 16.2447 16.4755 19.8691 17.8832 22.4717C19.1737 24.8472 19.9434 26.7311 20.4611 28.2891C20.8489 29.4585 21.0961 30.4455 21.3126 31.3424C21.6398 32.6794 21.8905 33.8575 22.5168 35.0437C22.829 35.6321 23.2344 36.2032 23.7551 36.7525C24.2765 37.3024 24.9096 37.8325 25.6893 38.375C27.3372 39.5253 29.0635 40.0038 30.6339 40C32.4947 39.9975 34.1161 39.3607 35.309 38.506C35.9074 38.0752 36.404 37.5892 36.7777 37.0553C37.1464 36.5196 37.4232 35.9313 37.4319 35.2124H34.9604Z" fill="black"/>
<path d="M29.6279 20.0808C28.7377 20.2465 27.9264 20.7537 27.3679 21.514C26.8049 22.2739 26.4939 23.2701 26.4952 24.4047C26.4952 25.0124 26.5826 25.6623 26.7657 26.3482C27.0817 27.5307 27.6242 28.4958 28.3467 29.1848C29.0648 29.8732 29.9829 30.2748 30.9357 30.2723C31.9275 30.2748 32.9083 29.8404 33.7015 29.0632C34.2267 28.5517 34.5494 27.9 34.7406 27.2048C34.9329 26.5071 35.0013 25.7511 35.0025 24.9479C35.0013 23.6077 34.8052 22.128 34.5494 20.5967C34.2924 19.0666 33.9728 17.4869 33.7108 15.9811C33.4234 14.3517 32.9697 12.6112 32.0529 11.1799C31.5935 10.4667 31.0063 9.82732 30.2553 9.3674C29.5067 8.90685 28.5992 8.64303 27.5899 8.64553C27.5129 8.64553 27.436 8.6467 27.3589 8.64982C26.1281 8.68888 25.0809 9.14763 24.3721 9.89498C23.6595 10.6392 23.2921 11.6013 23.1543 12.5919C23.0816 13.114 23.4454 13.5956 23.9674 13.6676C24.4888 13.7403 24.9704 13.3765 25.0425 12.8551V12.8545C25.1406 12.1482 25.3876 11.5883 25.7476 11.2158C26.1107 10.8465 26.5943 10.5939 27.431 10.5554L27.5899 10.5523C28.2814 10.5548 28.8034 10.7174 29.2596 10.9943C29.9387 11.4065 30.4918 12.1345 30.9194 13.0872C31.3471 14.0345 31.6369 15.1791 31.8325 16.3076C32.0782 17.719 32.3613 19.1529 32.5991 20.5272C31.9541 20.1801 31.2323 19.9977 30.498 19.9983C30.2082 19.9983 29.917 20.0256 29.6279 20.0808ZM33.0715 24.4618C33.0734 24.4767 33.0784 24.4904 33.0809 24.5053C33.0859 24.6523 33.0957 24.8076 33.0957 24.9479C33.097 25.6369 33.0318 26.2352 32.9034 26.6983C32.7743 27.1651 32.5912 27.4829 32.372 27.6964C31.8618 28.1874 31.3764 28.3636 30.9357 28.3654C30.5118 28.3636 30.084 28.2016 29.6614 27.8037C29.243 27.4065 28.8495 26.7634 28.608 25.8565C28.4633 25.314 28.4019 24.8286 28.4019 24.4047C28.4031 23.6101 28.6129 23.0372 28.9003 22.6475C29.1914 22.2589 29.5589 22.0367 29.9829 21.9541C30.156 21.9212 30.3286 21.9051 30.498 21.9051C31.1305 21.9063 31.7164 22.1248 32.1727 22.5376C32.6271 22.9529 32.9729 23.5662 33.0715 24.4618Z" fill="black"/>
<path d="M10.6108 12.2523C10.3464 11.7972 9.76295 11.6427 9.30795 11.9083C8.85232 12.1733 8.69904 12.7562 8.96341 13.2119C9.17326 13.5725 9.3706 13.9381 9.54685 14.3112C11.5158 18.4687 11.2719 23.1105 9.2942 26.9104C9.05154 27.3783 9.23279 27.9532 9.69951 28.1965C10.1676 28.4392 10.7423 28.2586 10.9857 27.7912C13.2265 23.4883 13.5039 18.213 11.2699 13.4943C11.0652 13.0616 10.8417 12.6488 10.6108 12.2523Z" fill="black"/>
<path d="M6.50764 14.3249C6.24257 13.8699 5.65905 13.7153 5.2035 13.9797C4.7485 14.2454 4.5946 14.8289 4.85835 15.2839C5.00796 15.5402 5.14639 15.7953 5.26866 16.0542C6.64913 18.9703 6.47717 22.221 5.09116 24.8863C4.84788 25.3531 5.02975 25.9291 5.49647 26.1724C5.96327 26.4157 6.53928 26.2339 6.78264 25.7671C8.43249 22.6002 8.63733 18.7146 6.99249 15.2385C6.8403 14.9176 6.67585 14.6147 6.50764 14.3249Z" fill="black"/>
<path d="M2.65961 16.8674C2.55648 16.6501 2.44727 16.4583 2.34672 16.2839C2.08234 15.8282 1.49883 15.6731 1.0432 15.9369C0.587578 16.2013 0.432422 16.7854 0.696875 17.2404V17.2411C0.789375 17.4006 0.87125 17.5471 0.935782 17.683C1.72844 19.3583 1.62672 21.2136 0.830938 22.745C0.586953 23.2123 0.768828 23.7872 1.23563 24.0304C1.70242 24.2743 2.27781 24.0932 2.52047 23.6264L2.52172 23.6257C3.44781 21.8504 3.66875 19.7189 3.00094 17.716C2.90539 17.4304 2.79117 17.1468 2.65961 16.8674Z" fill="black"/>
</svg>
