<svg width="40" height="40" viewBox="0 0 40 40" fill="none" xmlns="http://www.w3.org/2000/svg">
<path d="M2.15497 18.8217L8.82164 12.1551C8.97538 11.9959 9.15929 11.8689 9.36263 11.7816C9.56597 11.6942 9.78467 11.6482 10.006 11.6463C10.2273 11.6444 10.4467 11.6866 10.6516 11.7704C10.8564 11.8542 11.0425 11.9779 11.199 12.1344C11.3554 12.2909 11.4792 12.477 11.563 12.6818C11.6468 12.8866 11.689 13.1061 11.6871 13.3274C11.6851 13.5487 11.6392 13.7674 11.5518 13.9707C11.4645 14.1741 11.3375 14.358 11.1783 14.5117L5.68997 20.0001L11.1783 25.4884C11.3375 25.6421 11.4645 25.826 11.5518 26.0294C11.6392 26.2327 11.6851 26.4514 11.6871 26.6727C11.689 26.894 11.6468 27.1135 11.563 27.3183C11.4792 27.5231 11.3554 27.7092 11.199 27.8657C11.0425 28.0222 10.8564 28.146 10.6516 28.2298C10.4467 28.3136 10.2273 28.3557 10.006 28.3538C9.78467 28.3519 9.56597 28.3059 9.36263 28.2186C9.15929 28.1312 8.97538 28.0042 8.82164 27.8451L2.15497 21.1784C1.84252 20.8658 1.66699 20.442 1.66699 20.0001C1.66699 19.5581 1.84252 19.1343 2.15497 18.8217ZM31.1783 12.1551C31.0246 11.9959 30.8406 11.8689 30.6373 11.7816C30.434 11.6942 30.2153 11.6482 29.994 11.6463C29.7727 11.6444 29.5532 11.6866 29.3484 11.7704C29.1436 11.8542 28.9575 11.9779 28.801 12.1344C28.6445 12.2909 28.5207 12.477 28.4369 12.6818C28.3531 12.8866 28.311 13.1061 28.3129 13.3274C28.3148 13.5487 28.3608 13.7674 28.4481 13.9707C28.5355 14.1741 28.6625 14.358 28.8216 14.5117L34.31 20.0001L28.8216 25.4884C28.6625 25.6421 28.5355 25.826 28.4481 26.0294C28.3608 26.2327 28.3148 26.4514 28.3129 26.6727C28.311 26.894 28.3531 27.1135 28.4369 27.3183C28.5207 27.5231 28.6445 27.7092 28.801 27.8657C28.9575 28.0222 29.1436 28.146 29.3484 28.2298C29.5532 28.3136 29.7727 28.3557 29.994 28.3538C30.2153 28.3519 30.434 28.3059 30.6373 28.2186C30.8406 28.1312 31.0246 28.0042 31.1783 27.8451L37.845 21.1784C38.1574 20.8658 38.3329 20.442 38.3329 20.0001C38.3329 19.5581 38.1574 19.1343 37.845 18.8217L31.1783 12.1551ZM21.7316 7.87672L15.065 31.2101C14.9436 31.6348 14.9959 32.0904 15.2103 32.4767C15.4246 32.863 15.7836 33.1483 16.2083 33.2701C16.3576 33.3113 16.5117 33.3326 16.6666 33.3334C17.0288 33.3331 17.3811 33.2149 17.6701 32.9966C17.9591 32.7782 18.1691 32.4717 18.2683 32.1234L24.935 8.79006C25.0045 8.57698 25.0302 8.35207 25.0108 8.12879C24.9914 7.90551 24.9271 7.68844 24.8218 7.49057C24.7166 7.29271 24.5725 7.1181 24.3982 6.97721C24.2239 6.83631 24.0229 6.73202 23.8074 6.67056C23.5919 6.60911 23.3662 6.59176 23.1438 6.61955C22.9214 6.64734 22.7069 6.7197 22.5131 6.8323C22.3193 6.94491 22.1502 7.09544 22.0159 7.27489C21.8817 7.45435 21.785 7.65904 21.7316 7.87672Z" fill="#551FF2"/>
</svg>
