<svg width="40" height="40" viewBox="0 0 40 40" fill="none" xmlns="http://www.w3.org/2000/svg">
<g clip-path="url(#clip0_80_438)">
<path d="M14.4444 2.22217C12.3681 2.22217 10.6458 3.64578 10.1528 5.56939C10.0972 5.56939 10.0556 5.5555 10 5.5555C7.54861 5.5555 5.55556 7.54856 5.55556 9.99995C5.55556 10.3333 5.59722 10.6597 5.67361 10.9722C3.64583 11.8055 2.22222 13.7916 2.22222 16.1111C2.22222 16.9861 2.44444 17.7986 2.79861 18.5347C1.13194 19.493 0 21.2708 0 23.3333C0 25.6458 1.41667 27.6319 3.43056 28.4652C3.36806 28.7847 3.33333 29.1111 3.33333 29.4444C3.33333 32.2083 5.56944 34.4444 8.33333 34.4444C8.61806 34.4444 8.89583 34.4097 9.16667 34.3611C9.83333 36.3402 11.6806 37.7777 13.8889 37.7777C16.6528 37.7777 18.8889 35.5416 18.8889 32.7777V6.66661C18.8889 4.21522 16.8958 2.22217 14.4444 2.22217ZM40 23.3333C40 21.2708 38.8681 19.493 37.2014 18.5347C37.5625 17.7986 37.7778 16.9861 37.7778 16.1111C37.7778 13.7916 36.3542 11.8055 34.3264 10.9722C34.3958 10.6597 34.4444 10.3333 34.4444 9.99995C34.4444 7.54856 32.4514 5.5555 30 5.5555C29.9444 5.5555 29.8958 5.56939 29.8472 5.56939C29.3542 3.64578 27.6319 2.22217 25.5556 2.22217C23.1042 2.22217 21.1111 4.20828 21.1111 6.66661V32.7777C21.1111 35.5416 23.3472 37.7777 26.1111 37.7777C28.3194 37.7777 30.1667 36.3402 30.8333 34.3611C31.1042 34.4097 31.3819 34.4444 31.6667 34.4444C34.4306 34.4444 36.6667 32.2083 36.6667 29.4444C36.6667 29.1111 36.6319 28.7847 36.5694 28.4652C38.5833 27.6319 40 25.6458 40 23.3333Z" fill="#551FF2"/>
</g>
<defs>
<clipPath id="clip0_80_438">
<rect width="40" height="40" fill="white"/>
</clipPath>
</defs>
</svg>
