<svg width="40" height="40" viewBox="0 0 40 40" fill="none" xmlns="http://www.w3.org/2000/svg">
<g clip-path="url(#clip0_115_61)">
<path d="M2.52015 32.52C2.52015 30.92 2.97349 29.48 3.88015 28.2C4.78682 26.92 6.00015 26.0133 7.52015 25.48V14.56C6.02682 14.0533 4.81349 13.16 3.88015 11.88C2.94682 10.6 2.49349 9.14667 2.52015 7.52C2.52015 5.44 3.24015 3.66667 4.68015 2.2C6.12015 0.733333 7.89349 0 10.0002 0C12.1068 0 13.8802 0.733333 15.3202 2.2C16.7602 3.66667 17.4935 5.44 17.5202 7.52C17.5202 9.12 17.0535 10.5733 16.1202 11.88C15.1868 13.1867 13.9868 14.08 12.5202 14.56V20.48C13.3468 20.16 14.1735 20 15.0002 20H25.0002C25.6935 20 26.2802 19.76 26.7602 19.28C27.2402 18.8 27.4935 18.2133 27.5202 17.52V17.08C26.0268 16.5733 24.8135 15.6667 23.8802 14.36C22.9468 13.0533 22.4935 11.6133 22.5202 10.04C22.5202 7.96 23.2402 6.18667 24.6802 4.72C26.1202 3.25333 27.8935 2.52 30.0002 2.52C32.1068 2.52 33.8802 3.25333 35.3202 4.72C36.7602 6.18667 37.4935 7.96 37.5202 10.04C37.5202 11.64 37.0535 13.08 36.1202 14.36C35.1868 15.64 33.9868 16.5467 32.5202 17.08V17.52C32.5202 19.6 31.7868 21.3733 30.3202 22.84C28.8535 24.3067 27.0802 25.04 25.0002 25.04H15.0002C14.2802 25.04 13.6802 25.2933 13.2002 25.8C14.4802 26.4133 15.5202 27.32 16.3202 28.52C17.1202 29.72 17.5202 31.0533 17.5202 32.52C17.5202 34.6 16.7868 36.3733 15.3202 37.84C13.8535 39.3067 12.0802 40.04 10.0002 40.04C7.92015 40.04 6.14682 39.3067 4.68015 37.84C3.21349 36.3733 2.49349 34.6 2.52015 32.52ZM7.52015 32.52C7.52015 33.2133 7.76015 33.8133 8.24015 34.32C8.72015 34.8267 9.30682 35.0667 10.0002 35.04C10.6935 35.0133 11.2802 34.7733 11.7602 34.32C12.2402 33.8667 12.4935 33.2667 12.5202 32.52C12.5468 31.7733 12.2935 31.1867 11.7602 30.76C11.2268 30.3333 10.6402 30.0933 10.0002 30.04C9.36015 29.9867 8.77349 30.2267 8.24015 30.76C7.70682 31.2933 7.46682 31.88 7.52015 32.52ZM7.52015 7.52C7.52015 8.21333 7.76015 8.81333 8.24015 9.32C8.72015 9.82667 9.30682 10.0667 10.0002 10.04C10.6935 10.0133 11.2802 9.77333 11.7602 9.32C12.2402 8.86667 12.4935 8.26667 12.5202 7.52C12.5468 6.77333 12.2935 6.18667 11.7602 5.76C11.2268 5.33333 10.6402 5.09333 10.0002 5.04C9.36015 4.98667 8.77349 5.22667 8.24015 5.76C7.70682 6.29333 7.46682 6.88 7.52015 7.52ZM27.5202 10.04C27.5202 10.7333 27.7602 11.32 28.2402 11.8C28.7202 12.28 29.3068 12.52 30.0002 12.52C30.6935 12.52 31.2802 12.28 31.7602 11.8C32.2402 11.32 32.4935 10.7333 32.5202 10.04C32.5468 9.34667 32.2935 8.76 31.7602 8.28C31.2268 7.8 30.6402 7.54667 30.0002 7.52C29.3602 7.49333 28.7735 7.74667 28.2402 8.28C27.7068 8.81333 27.4668 9.4 27.5202 10.04Z" fill="#551FF2"/>
</g>
<defs>
<clipPath id="clip0_115_61">
<rect width="40" height="40" fill="white"/>
</clipPath>
</defs>
</svg>
