<svg width="40" height="40" viewBox="0 0 40 40" fill="none" xmlns="http://www.w3.org/2000/svg">
<g clip-path="url(#clip0_115_63)">
<path d="M15.3332 11.5001C15.8332 11.0029 16.4343 10.619 17.0957 10.3746C17.7572 10.1302 18.4634 10.0309 19.1666 10.0834C20.7929 10.1154 22.3445 10.7718 23.4999 11.9167C25.9166 14.2501 26.3332 17.9167 24.3332 20.0001C24.0225 20.3256 23.8491 20.7584 23.8491 21.2084C23.8491 21.6585 24.0225 22.0912 24.3332 22.4167C24.6682 22.6756 25.0767 22.8215 25.4999 22.8334C25.7191 22.8404 25.9372 22.7993 26.1387 22.7129C26.3403 22.6265 26.5205 22.497 26.6666 22.3334C29.3332 19.5834 29.5832 15.5001 27.7499 12.0834H28.3332C29.0337 12.0921 29.7283 11.956 30.3736 11.6835C31.019 11.411 31.601 11.0081 32.0832 10.5001C33.0436 9.49393 33.5654 8.14782 33.5342 6.75727C33.5029 5.36672 32.9212 4.04541 31.9166 3.08341C30.9361 2.18795 29.661 1.68381 28.3332 1.66675C26.8978 1.67407 25.5221 2.24229 24.4999 3.25008C23.956 3.83614 23.5532 4.53868 23.3221 5.30411C23.091 6.06954 23.0378 6.87763 23.1666 7.66675C21.9432 7.08014 20.6066 6.76732 19.2499 6.75008C18.0748 6.66937 16.8964 6.85192 15.8007 7.28441C14.7051 7.71691 13.7198 8.38845 12.9166 9.25008C12.732 9.40052 12.5817 9.58877 12.476 9.80217C12.3703 10.0156 12.3115 10.2491 12.3036 10.4872C12.2958 10.7252 12.339 10.9621 12.4305 11.182C12.5219 11.4019 12.6594 11.5997 12.8337 11.7619C13.008 11.9242 13.2151 12.0473 13.4409 12.1228C13.6668 12.1983 13.9062 12.2245 14.1431 12.1997C14.3799 12.1749 14.6087 12.0996 14.814 11.9789C15.0193 11.8582 15.1964 11.695 15.3332 11.5001ZM26.9166 5.58341C27.1028 5.39785 27.3238 5.25081 27.5668 5.15072C27.8099 5.05062 28.0704 4.99944 28.3332 5.00008C28.7982 5.00219 29.2451 5.18092 29.5832 5.50008C29.7703 5.66571 29.9215 5.86782 30.0277 6.09402C30.1338 6.32021 30.1925 6.5657 30.2003 6.81543C30.2082 7.06516 30.1648 7.31385 30.073 7.54622C29.9813 7.7786 29.8429 7.98976 29.6666 8.16675C29.5072 8.36352 29.3029 8.51918 29.0709 8.62069C28.8389 8.72219 28.5859 8.76656 28.3332 8.75008C27.8411 8.76083 27.3637 8.58179 26.9999 8.25008C26.8129 8.08445 26.6616 7.88234 26.5555 7.65615C26.4494 7.42995 26.3906 7.18446 26.3828 6.93473C26.375 6.685 26.4183 6.43632 26.5101 6.20394C26.6019 5.97156 26.7402 5.7604 26.9166 5.58341Z" fill="#551FF2"/>
<path d="M17.8333 32.0001C14.9999 31.2501 13.3333 28.0001 14.1666 24.7501C14.9999 21.5001 17.9166 19.2501 20.7499 20.0001C20.9633 20.0495 21.1844 20.0563 21.4004 20.0202C21.6165 19.9841 21.8233 19.9057 22.009 19.7897C22.1948 19.6736 22.3558 19.522 22.483 19.3436C22.6101 19.1652 22.7008 18.9635 22.7499 18.7501C22.8124 18.5421 22.8315 18.3235 22.8059 18.1078C22.7803 17.8922 22.7107 17.6841 22.6013 17.4965C22.4918 17.3089 22.345 17.1459 22.1699 17.0175C21.9947 16.889 21.7951 16.798 21.5833 16.7501C19.7654 16.3539 17.8683 16.5532 16.1724 17.3186C14.4766 18.0839 13.0721 19.3747 12.1666 21.0001C11.8415 20.2573 11.3488 19.5999 10.7271 19.0794C10.1055 18.5589 9.37165 18.1895 8.58327 18.0001L7.4166 17.8334C6.24435 17.8369 5.10699 18.2326 4.18574 18.9576C3.2645 19.6825 2.61237 20.6949 2.33327 21.8334C2.15962 22.5012 2.1215 23.1971 2.22117 23.8799C2.32084 24.5627 2.55627 25.2186 2.91358 25.8089C3.27088 26.3992 3.74281 26.912 4.30152 27.317C4.86023 27.7219 5.4944 28.0109 6.1666 28.1667L7.4166 28.3334C8.60167 28.3288 9.74913 27.9168 10.6666 27.1667C10.7412 29.0203 11.4029 30.8022 12.5563 32.2552C13.7097 33.7081 15.295 34.7569 17.0833 35.2501H17.4166C17.7951 35.262 18.1664 35.1448 18.4693 34.9176C18.7722 34.6904 18.9888 34.3668 19.0833 34.0001C19.1451 33.7863 19.1612 33.5619 19.1305 33.3415C19.0998 33.1211 19.0229 32.9096 18.905 32.7209C18.787 32.5322 18.6306 32.3704 18.446 32.2462C18.2613 32.122 18.0525 32.0382 17.8333 32.0001ZM9.24993 23.5001C9.15663 23.9194 8.92519 24.2952 8.59273 24.5672C8.26027 24.8392 7.84607 24.9917 7.4166 25.0001H6.9166C6.43531 24.8811 6.01885 24.5802 5.75469 24.1607C5.49053 23.7411 5.39922 23.2355 5.49993 22.7501C5.5963 22.3168 5.84007 21.9304 6.18963 21.6568C6.53918 21.3832 6.97285 21.2395 7.4166 21.2501H7.83327C8.07554 21.2987 8.30477 21.3981 8.50586 21.5418C8.70694 21.6854 8.87533 21.87 8.99993 22.0834C9.24883 22.511 9.33745 23.0131 9.24993 23.5001Z" fill="#551FF2"/>
<path d="M33.7498 28.2501C34.8471 27.4995 35.7823 26.536 36.4998 25.4167C37.1434 24.4303 37.566 23.3163 37.7386 22.1512C37.9112 20.9861 37.8297 19.7974 37.4998 18.6667C37.4422 18.4518 37.3421 18.2505 37.2055 18.0748C37.0689 17.8992 36.8984 17.7526 36.7043 17.6439C36.5101 17.5351 36.2961 17.4664 36.0749 17.4417C35.8537 17.417 35.6299 17.4368 35.4165 17.5001C34.9975 17.6341 34.6486 17.9283 34.4456 18.3185C34.2427 18.7088 34.2023 19.1635 34.3331 19.5834C34.5301 20.2573 34.5724 20.967 34.457 21.6596C34.3416 22.3522 34.0714 23.0098 33.6665 23.5834C32.7908 24.9415 31.4622 25.9454 29.9165 26.4167C26.6665 27.4167 23.3331 25.8334 22.4998 23.0834C22.4422 22.8684 22.3421 22.6672 22.2055 22.4915C22.0689 22.3158 21.8984 22.1693 21.7043 22.0606C21.5101 21.9518 21.2961 21.8831 21.0749 21.8584C20.8537 21.8337 20.6299 21.8535 20.4165 21.9167C20.2015 21.9743 20.0003 22.0744 19.8246 22.211C19.6489 22.3477 19.5024 22.5181 19.3936 22.7123C19.2849 22.9064 19.2162 23.1204 19.1915 23.3416C19.1667 23.5628 19.1866 23.7867 19.2498 24.0001C19.8337 25.7644 20.9642 27.2969 22.4775 28.3757C23.9908 29.4544 25.8082 30.0234 27.6665 30.0001C27.1019 30.7778 26.7617 31.6956 26.6829 32.6534C26.6041 33.6112 26.7897 34.5723 27.2195 35.4319C27.6492 36.2915 28.3067 37.0166 29.1203 37.5282C29.9338 38.0399 30.8722 38.3184 31.8331 38.3334C32.3433 38.3312 32.8498 38.2467 33.3331 38.0834C34.3522 37.753 35.2459 37.1187 35.8941 36.2658C36.5423 35.4128 36.914 34.3819 36.9593 33.3115C37.0047 32.2412 36.7215 31.1826 36.1478 30.2778C35.5741 29.3731 34.7373 28.6655 33.7498 28.2501ZM32.4165 34.9167H31.8331C31.4383 34.9126 31.0535 34.7917 30.7272 34.5693C30.401 34.3468 30.1479 34.0328 29.9998 33.6667C29.8889 33.1706 29.9633 32.651 30.2089 32.2059C30.4545 31.7608 30.8543 31.4208 31.3331 31.2501H31.8331C32.2515 31.2538 32.6571 31.3942 32.9881 31.65C33.3191 31.9058 33.5574 32.2629 33.6665 32.6667C33.7954 33.1308 33.7366 33.6269 33.5027 34.048C33.2688 34.469 32.8786 34.7811 32.4165 34.9167Z" fill="#551FF2"/>
</g>
<defs>
<clipPath id="clip0_115_63">
<rect width="40" height="40" fill="white"/>
</clipPath>
</defs>
</svg>
