<svg width="40" height="40" viewBox="0 0 40 40" fill="none" xmlns="http://www.w3.org/2000/svg">
<path d="M38.716 1.28439C37.0035 -0.427481 34.2285 -0.427481 32.516 1.28439L12.1048 21.6956C10.2073 21.2638 7.84976 21.5231 5.50538 23.8675C2.56663 26.8063 2.22851 29.5663 1.87101 32.4894C1.61663 34.5638 1.35413 36.7088 0.0828815 39.0688C-0.0477435 39.3131 -0.0039935 39.6138 0.192257 39.8088C0.387257 40.0044 0.687882 40.0488 0.931632 39.9175C3.29226 38.6463 5.43726 38.3838 7.51163 38.13C10.4341 37.7719 13.1941 37.4344 16.1329 34.4956C18.4773 32.1513 18.7373 29.7944 18.3048 27.8956L38.7166 7.48502C40.4279 5.77127 40.4279 2.99627 38.716 1.28439ZM15.2473 33.6088C12.6141 36.2425 10.1791 36.5406 7.36038 36.8856C5.63101 37.0975 3.85726 37.315 1.92351 38.0769C2.68601 36.1425 2.90288 34.3681 3.11413 32.64C3.45976 29.8213 3.75788 27.3856 6.39101 24.7525C10.7516 20.3919 15.0666 24.5744 15.2466 24.7519C15.426 24.9344 19.6079 29.2488 15.2473 33.6088ZM17.8691 26.5594C17.1816 24.9419 16.1566 23.89 16.1335 23.8669C16.1098 23.8438 15.0585 22.8181 13.441 22.1313L28.0891 7.48377L32.5166 11.9113L17.8691 26.5594ZM33.4016 11.0263L28.9741 6.59815L29.8598 5.71252L34.2873 10.1406L33.4016 11.0263ZM35.1735 9.25502L30.7448 4.82689L33.4016 2.17002C34.6248 0.947519 36.6073 0.94752 37.8298 2.17064C39.0529 3.39314 39.0529 5.37564 37.8298 6.59815L35.1735 9.25502Z" fill="#231F20"/>
<path d="M13.476 25.6388C13.231 25.8838 13.231 26.2795 13.476 26.5245C14.9435 27.9913 14.9435 30.3701 13.476 31.8382C13.2304 32.0832 13.231 32.4788 13.476 32.7238C13.721 32.9682 14.1166 32.9682 14.3616 32.7238C16.3179 30.767 16.3179 27.5951 14.3616 25.6388C14.1166 25.3938 13.7204 25.3938 13.476 25.6388Z" fill="#231F20"/>
</svg>
