<svg width="30" height="30" viewBox="0 0 30 30" fill="none" xmlns="http://www.w3.org/2000/svg">
<path d="M8.4002 12.3839C10.7198 12.3839 12.6002 10.5035 12.6002 8.18389C12.6002 5.86429 10.7198 3.98389 8.4002 3.98389C6.0806 3.98389 4.2002 5.86429 4.2002 8.18389C4.2002 10.5035 6.0806 12.3839 8.4002 12.3839Z" stroke="white" stroke-width="2" stroke-linecap="round" stroke-linejoin="round"/>
<path d="M21.5999 12.3839C23.9195 12.3839 25.7999 10.5035 25.7999 8.18389C25.7999 5.86429 23.9195 3.98389 21.5999 3.98389C19.2803 3.98389 17.3999 5.86429 17.3999 8.18389C17.3999 10.5035 19.2803 12.3839 21.5999 12.3839Z" stroke="white" stroke-width="2" stroke-linecap="round" stroke-linejoin="round"/>
<path d="M8.4002 25.5841C10.7198 25.5841 12.6002 23.7037 12.6002 21.3841C12.6002 19.0645 10.7198 17.1841 8.4002 17.1841C6.0806 17.1841 4.2002 19.0645 4.2002 21.3841C4.2002 23.7037 6.0806 25.5841 8.4002 25.5841Z" stroke="white" stroke-width="2" stroke-linecap="round" stroke-linejoin="round"/>
<path d="M21.5999 25.5841C23.9195 25.5841 25.7999 23.7037 25.7999 21.3841C25.7999 19.0645 23.9195 17.1841 21.5999 17.1841C19.2803 17.1841 17.3999 19.0645 17.3999 21.3841C17.3999 23.7037 19.2803 25.5841 21.5999 25.5841Z" stroke="white" stroke-width="2" stroke-linecap="round" stroke-linejoin="round"/>
</svg>
