<svg width="20" height="20" viewBox="0 0 20 20" fill="none" xmlns="http://www.w3.org/2000/svg">
<path d="M1.07797 9.41074L4.41131 6.07741C4.48818 5.99782 4.58013 5.93433 4.6818 5.89066C4.78347 5.84698 4.89282 5.82399 5.00347 5.82303C5.11412 5.82207 5.22385 5.84315 5.32627 5.88506C5.42868 5.92696 5.52173 5.98883 5.59997 6.06708C5.67821 6.14532 5.74009 6.23836 5.78199 6.34078C5.82389 6.44319 5.84498 6.55293 5.84402 6.66357C5.84305 6.77422 5.82007 6.88357 5.77639 6.98524C5.73272 7.08691 5.66923 7.17887 5.58964 7.25574L2.84547 9.99991L5.58964 12.7441C5.66923 12.8209 5.73272 12.9129 5.77639 13.0146C5.82007 13.1162 5.84305 13.2256 5.84402 13.3362C5.84498 13.4469 5.82389 13.5566 5.78199 13.659C5.74009 13.7614 5.67821 13.8545 5.59997 13.9327C5.52173 14.011 5.42868 14.0729 5.32627 14.1148C5.22385 14.1567 5.11412 14.1777 5.00347 14.1768C4.89282 14.1758 4.78347 14.1528 4.6818 14.1092C4.58013 14.0655 4.48818 14.002 4.41131 13.9224L1.07797 10.5891C0.921747 10.4328 0.833984 10.2209 0.833984 9.99991C0.833984 9.77894 0.921747 9.56701 1.07797 9.41074ZM15.5896 6.07741C15.5128 5.99782 15.4208 5.93433 15.3191 5.89066C15.2175 5.84698 15.1081 5.82399 14.9975 5.82303C14.8868 5.82207 14.7771 5.84315 14.6747 5.88506C14.5723 5.92696 14.4792 5.98883 14.401 6.06708C14.3227 6.14532 14.2609 6.23836 14.219 6.34078C14.1771 6.44319 14.156 6.55293 14.1569 6.66357C14.1579 6.77422 14.1809 6.88357 14.2246 6.98524C14.2682 7.08691 14.3317 7.17887 14.4113 7.25574L17.1555 9.99991L14.4113 12.7441C14.3317 12.8209 14.2682 12.9129 14.2246 13.0146C14.1809 13.1162 14.1579 13.2256 14.1569 13.3362C14.156 13.4469 14.1771 13.5566 14.219 13.659C14.2609 13.7614 14.3227 13.8545 14.401 13.9327C14.4792 14.011 14.5723 14.0729 14.6747 14.1148C14.7771 14.1567 14.8868 14.1777 14.9975 14.1768C15.1081 14.1758 15.2175 14.1528 15.3191 14.1092C15.4208 14.0655 15.5128 14.002 15.5896 13.9224L18.923 10.5891C19.0792 10.4328 19.167 10.2209 19.167 9.99991C19.167 9.77894 19.0792 9.56701 18.923 9.41074L15.5896 6.07741ZM10.8663 3.93824L7.53297 15.6049C7.47229 15.8173 7.49842 16.0451 7.60561 16.2382C7.71281 16.4314 7.8923 16.574 8.10464 16.6349C8.1793 16.6555 8.25635 16.6662 8.33381 16.6666C8.5149 16.6664 8.69102 16.6073 8.83552 16.4982C8.98002 16.389 9.08502 16.2357 9.13464 16.0616L12.468 4.39491C12.5027 4.28837 12.5156 4.17591 12.5059 4.06427C12.4962 3.95263 12.464 3.8441 12.4114 3.74517C12.3588 3.64623 12.2867 3.55893 12.1996 3.48848C12.1124 3.41803 12.012 3.36589 11.9042 3.33516C11.7964 3.30443 11.6836 3.29576 11.5724 3.30965C11.4612 3.32355 11.3539 3.35973 11.257 3.41603C11.1601 3.47233 11.0756 3.5476 11.0085 3.63732C10.9413 3.72705 10.893 3.8294 10.8663 3.93824Z" fill="black"/>
</svg>
